<?xml version="1.0" encoding="UTF-8" standalone="no"?><!DOCTYPE svg PUBLIC "-//W3C//DTD SVG 1.1//EN" "http://www.w3.org/Graphics/SVG/1.1/DTD/svg11.dtd"><!-- Generated by graphviz version 2.40.1 (20161225.0304)
 --><!-- Title: %0 Pages: 1 --><svg xmlns="http://www.w3.org/2000/svg" xmlns:xlink="http://www.w3.org/1999/xlink" width="1200pt" height="404pt" viewBox="0.00 0.00 1199.69 404.00">
<g id="graph0" class="graph" transform="scale(1 1) rotate(0) translate(4 400)">
<title>%0</title>
<polygon fill="#ffffff" stroke="transparent" points="-4,4 -4,-400 1195.6934,-400 1195.6934,4 -4,4"/>
<!-- [root] aws_default_vpc.default (expand) -->
<g id="node1" class="node">
<title>[root] aws_default_vpc.default (expand)</title>
<polygon fill="none" stroke="#000000" points="497.0576,-108 343.6124,-108 343.6124,-72 497.0576,-72 497.0576,-108"/>
<text text-anchor="middle" x="420.335" y="-85.8" font-family="Times,serif" font-size="14.00" fill="#000000">aws_default_vpc.default</text>
</g>
<!-- [root] provider[&quot;registry.terraform.io/hashicorp/aws&quot;] -->
<g id="node6" class="node">
<title>[root] provider["registry.terraform.io/hashicorp/aws"]</title>
<polygon fill="none" stroke="#000000" points="516.335,-36 241.3445,-18 516.335,0 791.3254,-18 516.335,-36"/>
<text text-anchor="middle" x="516.335" y="-13.8" font-family="Times,serif" font-size="14.00" fill="#000000">provider["registry.terraform.io/hashicorp/aws"]</text>
</g>
<!-- [root] aws_default_vpc.default (expand)&#45;&gt;[root] provider[&quot;registry.terraform.io/hashicorp/aws&quot;] -->
<g id="edge1" class="edge">
<title>[root] aws_default_vpc.default (expand)-&gt;[root] provider["registry.terraform.io/hashicorp/aws"]</title>
<path fill="none" stroke="#000000" d="M444.5598,-71.8314C457.1634,-62.3787 472.6928,-50.7316 486.0793,-40.6918"/>
<polygon fill="#000000" stroke="#000000" points="488.192,-43.4823 494.092,-34.6822 483.992,-37.8823 488.192,-43.4823"/>
</g>
<!-- [root] aws_instance.http_server (expand) -->
<g id="node2" class="node">
<title>[root] aws_instance.http_server (expand)</title>
<polygon fill="none" stroke="#000000" points="688.9466,-252 531.7234,-252 531.7234,-216 688.9466,-216 688.9466,-252"/>
<text text-anchor="middle" x="610.335" y="-229.8" font-family="Times,serif" font-size="14.00" fill="#000000">aws_instance.http_server</text>
</g>
<!-- [root] aws_security_group.http_server_sg (expand) -->
<g id="node3" class="node">
<title>[root] aws_security_group.http_server_sg (expand)</title>
<polygon fill="none" stroke="#000000" points="362.4981,-180 148.1719,-180 148.1719,-144 362.4981,-144 362.4981,-180"/>
<text text-anchor="middle" x="255.335" y="-157.8" font-family="Times,serif" font-size="14.00" fill="#000000">aws_security_group.http_server_sg</text>
</g>
<!-- [root] aws_instance.http_server (expand)&#45;&gt;[root] aws_security_group.http_server_sg (expand) -->
<g id="edge2" class="edge">
<title>[root] aws_instance.http_server (expand)-&gt;[root] aws_security_group.http_server_sg (expand)</title>
<path fill="none" stroke="#000000" d="M531.549,-218.0209C479.2311,-207.4099 410.1367,-193.3964 354.1422,-182.0398"/>
<polygon fill="#000000" stroke="#000000" points="354.7006,-178.5818 344.2044,-180.0242 353.3091,-185.4422 354.7006,-178.5818"/>
</g>
<!-- [root] data.aws_ami.aws&#45;linux&#45;2&#45;latest (expand) -->
<g id="node4" class="node">
<title>[root] data.aws_ami.aws-linux-2-latest (expand)</title>
<polygon fill="none" stroke="#000000" points="711.9909,-108 514.6791,-108 514.6791,-72 711.9909,-72 711.9909,-108"/>
<text text-anchor="middle" x="613.335" y="-85.8" font-family="Times,serif" font-size="14.00" fill="#000000">data.aws_ami.aws-linux-2-latest</text>
</g>
<!-- [root] aws_instance.http_server (expand)&#45;&gt;[root] data.aws_ami.aws&#45;linux&#45;2&#45;latest (expand) -->
<g id="edge3" class="edge">
<title>[root] aws_instance.http_server (expand)-&gt;[root] data.aws_ami.aws-linux-2-latest (expand)</title>
<path fill="none" stroke="#000000" d="M610.7149,-215.7623C611.2266,-191.201 612.1423,-147.2474 612.7443,-118.3541"/>
<polygon fill="#000000" stroke="#000000" points="616.249,-118.1604 612.9581,-108.0896 609.2505,-118.0145 616.249,-118.1604"/>
</g>
<!-- [root] data.aws_subnets.default_subnets (expand) -->
<g id="node5" class="node">
<title>[root] data.aws_subnets.default_subnets (expand)</title>
<polygon fill="none" stroke="#000000" points="585.7804,-180 380.8896,-180 380.8896,-144 585.7804,-144 585.7804,-180"/>
<text text-anchor="middle" x="483.335" y="-157.8" font-family="Times,serif" font-size="14.00" fill="#000000">data.aws_subnets.default_subnets</text>
</g>
<!-- [root] aws_instance.http_server (expand)&#45;&gt;[root] data.aws_subnets.default_subnets (expand) -->
<g id="edge4" class="edge">
<title>[root] aws_instance.http_server (expand)-&gt;[root] data.aws_subnets.default_subnets (expand)</title>
<path fill="none" stroke="#000000" d="M578.2875,-215.8314C561.893,-206.5368 541.7564,-195.1208 524.2521,-185.1971"/>
<polygon fill="#000000" stroke="#000000" points="525.7976,-182.05 515.3722,-180.1628 522.3453,-188.1395 525.7976,-182.05"/>
</g>
<!-- [root] var.aws_key_pair -->
<g id="node7" class="node">
<title>[root] var.aws_key_pair</title>
<polygon fill="none" stroke="#000000" points="750.9565,-180 641.7135,-180 641.7135,-144 756.9565,-144 756.9565,-174 750.9565,-180"/>
<polyline fill="none" stroke="#000000" points="750.9565,-180 750.9565,-174 "/>
<polyline fill="none" stroke="#000000" points="756.9565,-174 750.9565,-174 "/>
<text text-anchor="middle" x="699.335" y="-157.8" font-family="Times,serif" font-size="14.00" fill="#000000">var.aws_key_pair</text>
</g>
<!-- [root] aws_instance.http_server (expand)&#45;&gt;[root] var.aws_key_pair -->
<g id="edge5" class="edge">
<title>[root] aws_instance.http_server (expand)-&gt;[root] var.aws_key_pair</title>
<path fill="none" stroke="#000000" d="M632.7935,-215.8314C643.7555,-206.9632 657.1049,-196.1637 668.9615,-186.5718"/>
<polygon fill="#000000" stroke="#000000" points="671.3105,-189.1734 676.8837,-180.1628 666.9079,-183.7313 671.3105,-189.1734"/>
</g>
<!-- [root] aws_security_group.http_server_sg (expand)&#45;&gt;[root] aws_default_vpc.default (expand) -->
<g id="edge6" class="edge">
<title>[root] aws_security_group.http_server_sg (expand)-&gt;[root] aws_default_vpc.default (expand)</title>
<path fill="none" stroke="#000000" d="M296.9715,-143.8314C319.0392,-134.2018 346.3257,-122.295 369.6207,-112.1299"/>
<polygon fill="#000000" stroke="#000000" points="371.2324,-115.2454 378.9979,-108.038 368.4327,-108.8296 371.2324,-115.2454"/>
</g>
<!-- [root] data.aws_ami.aws&#45;linux&#45;2&#45;latest (expand)&#45;&gt;[root] provider[&quot;registry.terraform.io/hashicorp/aws&quot;] -->
<g id="edge7" class="edge">
<title>[root] data.aws_ami.aws-linux-2-latest (expand)-&gt;[root] provider["registry.terraform.io/hashicorp/aws"]</title>
<path fill="none" stroke="#000000" d="M588.8578,-71.8314C576.1229,-62.3787 560.4318,-50.7316 546.9059,-40.6918"/>
<polygon fill="#000000" stroke="#000000" points="548.9255,-37.8321 538.8097,-34.6822 544.7533,-43.4529 548.9255,-37.8321"/>
</g>
<!-- [root] data.aws_subnets.default_subnets (expand)&#45;&gt;[root] aws_default_vpc.default (expand) -->
<g id="edge8" class="edge">
<title>[root] data.aws_subnets.default_subnets (expand)-&gt;[root] aws_default_vpc.default (expand)</title>
<path fill="none" stroke="#000000" d="M467.4374,-143.8314C460.1072,-135.454 451.269,-125.3531 443.2381,-116.1749"/>
<polygon fill="#000000" stroke="#000000" points="445.6657,-113.6343 436.4466,-108.4133 440.3977,-118.2438 445.6657,-113.6343"/>
</g>
<!-- [root] output.aws_instance_public_dns (expand) -->
<g id="node8" class="node">
<title>[root] output.aws_instance_public_dns (expand)</title>
<ellipse fill="none" stroke="#000000" cx="481.335" cy="-306" rx="197.9069" ry="18"/>
<text text-anchor="middle" x="481.335" y="-301.8" font-family="Times,serif" font-size="14.00" fill="#000000">[root] output.aws_instance_public_dns (expand)</text>
</g>
<!-- [root] output.aws_instance_public_dns (expand)&#45;&gt;[root] aws_instance.http_server (expand) -->
<g id="edge9" class="edge">
<title>[root] output.aws_instance_public_dns (expand)-&gt;[root] aws_instance.http_server (expand)</title>
<path fill="none" stroke="#000000" d="M513.2226,-288.2022C529.996,-278.8404 550.7625,-267.2498 568.7815,-257.1927"/>
<polygon fill="#000000" stroke="#000000" points="570.892,-260.023 577.9182,-252.0931 567.4804,-253.9106 570.892,-260.023"/>
</g>
<!-- [root] output.aws_security_group_http_server_details (expand) -->
<g id="node9" class="node">
<title>[root] output.aws_security_group_http_server_details (expand)</title>
<ellipse fill="none" stroke="#000000" cx="255.335" cy="-234" rx="255.1701" ry="18"/>
<text text-anchor="middle" x="255.335" y="-229.8" font-family="Times,serif" font-size="14.00" fill="#000000">[root] output.aws_security_group_http_server_details (expand)</text>
</g>
<!-- [root] output.aws_security_group_http_server_details (expand)&#45;&gt;[root] aws_security_group.http_server_sg (expand) -->
<g id="edge10" class="edge">
<title>[root] output.aws_security_group_http_server_details (expand)-&gt;[root] aws_security_group.http_server_sg (expand)</title>
<path fill="none" stroke="#000000" d="M255.335,-215.8314C255.335,-208.131 255.335,-198.9743 255.335,-190.4166"/>
<polygon fill="#000000" stroke="#000000" points="258.8351,-190.4132 255.335,-180.4133 251.8351,-190.4133 258.8351,-190.4132"/>
</g>
<!-- [root] provider[&quot;registry.terraform.io/hashicorp/aws&quot;] (close) -->
<g id="node10" class="node">
<title>[root] provider["registry.terraform.io/hashicorp/aws"] (close)</title>
<ellipse fill="none" stroke="#000000" cx="944.335" cy="-306" rx="247.2168" ry="18"/>
<text text-anchor="middle" x="944.335" y="-301.8" font-family="Times,serif" font-size="14.00" fill="#000000">[root] provider["registry.terraform.io/hashicorp/aws"] (close)</text>
</g>
<!-- [root] provider[&quot;registry.terraform.io/hashicorp/aws&quot;] (close)&#45;&gt;[root] aws_instance.http_server (expand) -->
<g id="edge11" class="edge">
<title>[root] provider["registry.terraform.io/hashicorp/aws"] (close)-&gt;[root] aws_instance.http_server (expand)</title>
<path fill="none" stroke="#000000" d="M865.1817,-288.937C815.163,-278.1545 750.4463,-264.2036 698.7466,-253.0588"/>
<polygon fill="#000000" stroke="#000000" points="699.4332,-249.6265 688.9202,-250.9405 697.958,-256.4693 699.4332,-249.6265"/>
</g>
<!-- [root] root -->
<g id="node11" class="node">
<title>[root] root</title>
<ellipse fill="none" stroke="#000000" cx="481.335" cy="-378" rx="50.9823" ry="18"/>
<text text-anchor="middle" x="481.335" y="-373.8" font-family="Times,serif" font-size="14.00" fill="#000000">[root] root</text>
</g>
<!-- [root] root&#45;&gt;[root] output.aws_instance_public_dns (expand) -->
<g id="edge12" class="edge">
<title>[root] root-&gt;[root] output.aws_instance_public_dns (expand)</title>
<path fill="none" stroke="#000000" d="M481.335,-359.8314C481.335,-352.131 481.335,-342.9743 481.335,-334.4166"/>
<polygon fill="#000000" stroke="#000000" points="484.8351,-334.4132 481.335,-324.4133 477.8351,-334.4133 484.8351,-334.4132"/>
</g>
<!-- [root] root&#45;&gt;[root] output.aws_security_group_http_server_details (expand) -->
<g id="edge13" class="edge">
<title>[root] root-&gt;[root] output.aws_security_group_http_server_details (expand)</title>
<path fill="none" stroke="#000000" d="M433.3684,-371.3969C379.2706,-362.968 295.9974,-346.7082 274.335,-324 258.8031,-307.7183 254.613,-282.0939 253.9848,-262.3441"/>
<polygon fill="#000000" stroke="#000000" points="257.484,-262.0621 253.9528,-252.0731 250.4841,-262.084 257.484,-262.0621"/>
</g>
<!-- [root] root&#45;&gt;[root] provider[&quot;registry.terraform.io/hashicorp/aws&quot;] (close) -->
<g id="edge14" class="edge">
<title>[root] root-&gt;[root] provider["registry.terraform.io/hashicorp/aws"] (close)</title>
<path fill="none" stroke="#000000" d="M528.2779,-370.7C598.2207,-359.8234 731.9443,-339.0284 828.9555,-323.9424"/>
<polygon fill="#000000" stroke="#000000" points="829.7692,-327.358 839.1126,-322.3629 828.6935,-320.4411 829.7692,-327.358"/>
</g>
</g>
</svg>